# xmcd
#
# Track frame offsets: 
#        150
#        20792
#        47966
#        61310
#        79124
#        94118
#        106255
#        125884
#        143563
#        164400
#        179567
#
# Disc length: 2651 seconds
#
# Revision: 0
# Processed by: cddbd v1.5.2PL0 Copyright (c) Steve Scherf et al.
# Submitted via: ExactAudioCopy v0.99pb4
#
DISCID=9b0a590b
DTITLE=Various Artist - Modern Jazz at RFH 1954
DYEAR=1954
DGENRE=Jazz
TTITLE0=My Honey's Lovin' Arms
TTITLE1=Give Me the Simple Life
TTITLE2=Chelsea Bridge
TTITLE3=Roomin' with Moomin
TTITLE4=Hallelujah
TTITLE5=I'm Beginning to See the Light
TTITLE6=Waterloo Bridge
TTITLE7=Good Bait
TTITLE8=Ahmed
TTITLE9=Compos Mentis
TTITLE10=Down Under
EXTD=
EXTT0=
EXTT1=
EXTT2=
EXTT3=
EXTT4=
EXTT5=
EXTT6=
EXTT7=
EXTT8=
EXTT9=
EXTT10=
PLAYORDER=
